<?xml version="1.0" encoding="UTF-8" standalone="no"?>
<!-- Created with Inkscape (http://www.inkscape.org/) -->

<svg
   xmlns:dc="http://purl.org/dc/elements/1.1/"
   xmlns:cc="http://creativecommons.org/ns#"
   xmlns:rdf="http://www.w3.org/1999/02/22-rdf-syntax-ns#"
   xmlns:svg="http://www.w3.org/2000/svg"
   xmlns="http://www.w3.org/2000/svg"
   xmlns:sodipodi="http://sodipodi.sourceforge.net/DTD/sodipodi-0.dtd"
   xmlns:inkscape="http://www.inkscape.org/namespaces/inkscape"
   width="150mm"
   height="20mm"
   viewBox="0 0 150 20"
   version="1.1"
   id="svg24"
   inkscape:export-xdpi="96"
   inkscape:export-ydpi="96"
   inkscape:version="0.92.4 (5da689c313, 2019-01-14)"
   sodipodi:docname="logo.svg">
  <defs
     id="defs18" />
  <sodipodi:namedview
     id="base"
     pagecolor="#ffffff"
     bordercolor="#666666"
     borderopacity="1.0"
     inkscape:pageopacity="0.0"
     inkscape:pageshadow="2"
     inkscape:zoom="1"
     inkscape:cx="54.37165"
     inkscape:cy="30.020408"
     inkscape:document-units="mm"
     inkscape:current-layer="headerText.primary"
     showgrid="false"
     inkscape:window-width="1920"
     inkscape:window-height="986"
     inkscape:window-x="-11"
     inkscape:window-y="-11"
     inkscape:window-maximized="1"
     inkscape:showpageshadow="false"
     inkscape:snap-text-baseline="false" />
  <metadata
     id="metadata21">
    <rdf:RDF>
      <cc:Work
         rdf:about="">
        <dc:format>image/svg+xml</dc:format>
        <dc:type
           rdf:resource="http://purl.org/dc/dcmitype/StillImage" />
        <dc:title />
      </cc:Work>
    </rdf:RDF>
  </metadata>
  <g
     inkscape:label="Layer 1"
     inkscape:groupmode="layer"
     id="layer1"
     transform="translate(-13.474851,-313.41799)">
    <rect
       style="fill:#383e42;fill-opacity:0;stroke:#ffffff;stroke-width:0.26458332;stroke-opacity:0"
       id="rect4555"
       width="172.35715"
       height="77.863091"
       x="21.922617"
       y="35.440475" />
    <rect
       style="fill:#383e42;fill-opacity:0;stroke:#ffffff;stroke-width:0.26458332;stroke-opacity:0"
       id="rect4557"
       width="223.7619"
       height="158.75"
       x="13.607142"
       y="174.53571" />
    <rect
       style="fill:#383e42;fill-opacity:0;stroke:#ffffff;stroke-width:0.26458332;stroke-opacity:0"
       id="rect4559"
       width="74.839287"
       height="163.28572"
       x="25.702381"
       y="61.898808" />
    <rect
       style="fill:#383e42;fill-opacity:0;stroke:#ffffff;stroke-width:0.26458332;stroke-opacity:0"
       id="rect4561"
       width="102.80952"
       height="17.386906"
       x="101.29762"
       y="66.434525" />
    <rect
       style="fill:#383e42;fill-opacity:0;stroke:#ffffff;stroke-width:0.26458332;stroke-opacity:0"
       id="rect4563"
       width="78.619049"
       height="59.720234"
       x="37.797619"
       y="16.541666" />
    <rect
       style="fill:#1a1a1a;fill-opacity:0;stroke:#ffffff;stroke-width:0.26458332;stroke-opacity:0"
       id="rect4565"
       width="96.005951"
       height="55.940472"
       x="20.410715"
       y="20.321428" />
    <rect
       style="fill:#4d4d4d;fill-opacity:0;stroke:#ffffff;stroke-width:0.26458332;stroke-opacity:0"
       id="rect4567"
       width="88.446426"
       height="55.940475"
       x="61.232143"
       y="15.029762" />
    <rect
       style="fill:#4d4d4d;fill-opacity:0;stroke:#ffffff;stroke-width:0.26458332;stroke-opacity:0"
       id="rect4569"
       width="26.458332"
       height="34.01786"
       x="25.702381"
       y="61.898804" />
    <path
       id="rect4571"
       transform="scale(0.26458333)"
       style="fill:#4d4d4d;fill-opacity:0;stroke:#ffffff;stroke-width:0.99999994;stroke-opacity:0"
       d="m 334.28516,36.804688 v 26.480468 c 1.60747,-0.516925 3.40867,-0.77257 5.38086,-0.691406 4.07104,0.167541 8.83853,1.72881 13.97265,5.181641 34.13426,22.956189 65.37798,50.060769 99.67969,72.773439 9.75265,6.45765 19.92696,12.25385 29.89062,18.38086 36.6375,19.65543 73.68317,38.46384 110.75391,57.27929 5.17868,2.62848 10.31414,5.34324 15.49414,7.96875 4.77956,0.63502 9.59136,1.07515 14.35938,1.79102 l 2.93359,0.58984 c 10.75541,2.16513 16.41599,7.80228 17.73047,13.52539 6.73831,2.92021 13.99457,6.04656 21.23437,9.2754 V 36.804688 Z m 0,52.066406 v 90.585936 c 5.84554,0.61169 6.34678,0.42118 23.80078,1.10938 17.99972,1.06501 36.01705,-1.05322 54.01172,-0.45508 13.19747,0.43868 45.30338,3.45049 61.3164,5.92187 -1.73094,-0.92866 -3.46635,-1.84852 -5.19531,-2.78125 -10.51249,-6.49203 -21.23854,-12.64827 -31.53711,-19.47461 -34.02516,-22.55333 -65.06624,-49.38893 -98.89258,-72.228512 -1.28948,-0.87066 -2.44678,-1.767144 -3.5039,-2.677734 z m 237.14257,73.648436 h 11.42969 c 28.28425,0 28.28425,28.57227 0,28.57227 h -11.42969 c -28.28428,0 -28.28428,-28.57227 0,-28.57227 z m -237.14257,45.62891 v 62.94336 h 309.87109 c -5.18559,-2.25747 -10.28565,-4.46087 -14.88672,-6.46289 -8.49022,-3.79361 -17.07297,-7.38675 -25.4707,-11.38086 -1.09773,-0.5221 -2.18481,-1.0669 -3.27539,-1.60352 -1.49863,-0.23667 -2.99442,-0.48849 -4.48438,-0.77734 -4.89672,-0.94931 -9.66202,-2.48461 -14.51172,-3.65039 -6.11478,-1.46988 -12.32163,-2.57162 -18.38086,-4.25586 -9.76293,-2.71374 -30.81774,-10.22204 -40.08007,-13.44532 -17.66079,-5.99608 -30.55095,-11.01672 -49.21875,-14.47265 -11.91806,-2.20637 -48.57559,-5.94504 -61.30078,-6.36524 -18.53413,-0.61202 -37.09373,1.58748 -55.63282,0.4375 -14.15403,-0.60023 -17.96483,-0.61018 -22.6289,-0.96679 z"
       inkscape:connector-curvature="0" />
    <rect
       style="fill:#4d4d4d;fill-opacity:0;stroke:#ffffff;stroke-width:0.26458332;stroke-opacity:0"
       id="rect4594"
       width="97.51786"
       height="71.059525"
       x="37.797619"
       y="16.541666" />
    <rect
       style="fill:#008000;fill-opacity:0;stroke:#ffffff;stroke-width:0.26458332;stroke-opacity:0"
       id="rect4596"
       width="127.75595"
       height="63.5"
       x="21.922615"
       y="35.440475" />
    <rect
       style="fill:#964da0;fill-opacity:0;stroke:#ffffff;stroke-width:0.26458332;stroke-opacity:0"
       id="rect4598"
       width="133.80357"
       height="77.863091"
       x="37.797619"
       y="16.541666" />
    <g
       aria-label="SKEMATIX"
       transform="scale(1.1345276,0.88142412)"
       style="font-style:normal;font-variant:normal;font-weight:normal;font-stretch:normal;font-size:19.75555611px;line-height:1;font-family:Colus;-inkscape-font-specification:'Colus, Normal';font-variant-ligatures:normal;font-variant-caps:normal;font-variant-numeric:normal;font-feature-settings:normal;text-align:justify;letter-spacing:0.89500362;writing-mode:lr-tb;text-anchor:start;opacity:0.98000004;fill:#008000;fill-opacity:1;fill-rule:evenodd;stroke:none;stroke-width:0.52431709;stroke-miterlimit:4.0999999;stroke-dasharray:none;stroke-opacity:1"
       id="headerText.primary">
      <path
         d="m 38.502725,374.48458 c 3.2004,-0.0395 4.820356,-1.83727 4.820356,-4.03014 0,-2.96333 -2.094089,-3.83257 -3.852334,-4.56353 -1.284111,-0.5334 -2.390422,-0.98778 -2.390422,-2.1336 0,-1.00753 0.770466,-1.52118 2.271889,-1.52118 1.145822,0 2.271889,0.31609 3.121378,1.61996 h 0.03951 l -0.256823,-3.23991 c -1.145822,-0.29634 -2.074333,-0.41487 -3.101622,-0.41487 -3.062111,0 -4.741333,1.79776 -4.741333,3.75356 0,2.74602 1.916289,3.556 3.635022,4.2672 1.343378,0.55315 2.548467,1.0668 2.548467,2.42993 0,1.0668 -0.691445,1.73849 -2.291645,1.778 -1.619955,0.0395 -2.904066,-0.5334 -4.0894,-2.07433 l -0.03951,0.0198 0.335844,3.31894 c 0.889001,0.5334 2.390423,0.80997 3.990623,0.79022 z"
         style="font-style:normal;font-variant:normal;font-weight:normal;font-stretch:normal;font-size:19.75555611px;line-height:15.97554207px;font-family:Colus;-inkscape-font-specification:'Colus, Normal';font-variant-ligatures:normal;font-variant-caps:normal;font-variant-numeric:normal;font-feature-settings:normal;text-align:justify;writing-mode:lr-tb;text-anchor:start;fill:#051235;fill-opacity:1;stroke:none;stroke-width:0.52431709;stroke-miterlimit:4.0999999;stroke-dasharray:none;stroke-opacity:1"
         id="path831" />
      <path
         d="m 49.904289,371.24467 v -7.8232 c 0,-1.61996 0.513644,-2.58798 0.968022,-2.92383 v -0.0395 h -4.741333 v 0.0395 c 0.513644,0.33585 1.0668,1.28412 1.0668,2.8448 v 7.88247 c 0,1.61996 -0.572912,2.58798 -1.0668,2.92382 v 0.0395 h 4.741333 v -0.0395 c -0.454378,-0.33584 -0.968022,-1.28411 -0.968022,-2.90406 z m 6.953956,0.7112 -3.753556,-5.49205 2.785533,-3.77331 c 0.632178,-0.86924 1.501423,-1.79775 2.331156,-2.19287 v -0.0395 h -4.109156 c 0.01976,0.37536 -0.158044,0.86925 -0.651933,1.58045 l -3.338689,4.72158 3.990622,5.92666 c 0.454378,0.67169 0.849489,1.4224 0.968022,1.87678 l 3.970867,-0.67169 v -0.0395 c -0.968022,-0.39511 -1.521178,-0.90876 -2.192866,-1.89653 z"
         style="font-style:normal;font-variant:normal;font-weight:normal;font-stretch:normal;font-size:19.75555611px;line-height:15.97554207px;font-family:Colus;-inkscape-font-specification:'Colus, Normal';font-variant-ligatures:normal;font-variant-caps:normal;font-variant-numeric:normal;font-feature-settings:normal;text-align:justify;writing-mode:lr-tb;text-anchor:start;fill:#051235;fill-opacity:1;stroke:none;stroke-width:0.52431709;stroke-miterlimit:4.0999999;stroke-dasharray:none;stroke-opacity:1"
         id="path833" />
      <path
         d="m 70.351119,370.39518 c -0.849489,1.20509 -2.232378,1.85702 -3.970867,1.85702 h -2.153355 v -4.445 h 1.817511 c 1.106311,0 1.817511,0.3556 2.153356,1.2446 h 0.03951 l 0.572911,-3.31893 c -0.889,0.11853 -1.442156,0.13829 -3.081867,0.13829 h -1.501422 v -3.47698 h 2.607733 c 1.540934,0 2.627489,0.49389 3.101622,1.46191 l 0.03951,-0.0198 -0.335845,-3.53624 c -0.434622,0.0988 -1.303867,0.15804 -2.094089,0.15804 h -7.092244 v 0.0395 c 0.513644,0.33585 1.0668,1.28412 1.0668,2.92383 v 7.80344 c 0,1.61996 -0.572912,2.58798 -1.0668,2.92382 v 0.0395 h 6.973711 c 1.165578,0 1.679222,0.0395 2.410178,0.15805 l 0.553155,-3.93136 z"
         style="font-style:normal;font-variant:normal;font-weight:normal;font-stretch:normal;font-size:19.75555611px;line-height:15.97554207px;font-family:Colus;-inkscape-font-specification:'Colus, Normal';font-variant-ligatures:normal;font-variant-caps:normal;font-variant-numeric:normal;font-feature-settings:normal;text-align:justify;writing-mode:lr-tb;text-anchor:start;fill:#051235;fill-opacity:1;stroke:none;stroke-width:0.52431709;stroke-miterlimit:4.0999999;stroke-dasharray:none;stroke-opacity:1"
         id="path835" />
      <path
         d="m 72.680563,374.18824 h 4.346222 l 0.01976,-0.0395 c -0.375356,-0.33584 -0.7112,-1.20509 -0.651934,-2.44969 l 0.217311,-4.0894 c 0.03951,-0.84948 0.03951,-1.91628 -0.118533,-3.39795 h 0.07902 c 0.375356,1.38289 0.790222,2.3114 1.4224,3.33869 l 2.350911,3.75355 c 0.730956,1.16558 0.928512,1.9558 0.987778,2.37067 h 0.158045 c 0.03951,-0.41487 0.217311,-1.20509 0.928511,-2.39042 l 2.192867,-3.71405 c 0.651933,-1.10631 1.106311,-2.03482 1.521177,-3.35844 h 0.07902 c -0.1778,1.44215 -0.197556,2.46944 -0.118534,3.39795 l 0.316089,4.0894 c 0.09878,1.2446 -0.276578,2.11385 -0.651933,2.44969 l 0.01976,0.0395 h 4.524023 l 0.01975,-0.0395 c -0.7112,-0.7112 -1.086555,-1.91629 -1.165578,-2.86455 l -0.612422,-7.66516 c -0.07902,-1.08655 0.256822,-2.62749 1.145822,-3.12138 l -0.01976,-0.0395 h -4.563534 c 0.237067,0.29634 0.197556,0.86925 -0.296333,1.73849 l -1.936044,3.41771 c -0.651934,1.14583 -1.165578,2.05458 -1.461912,3.25967 h -0.07902 c -0.1778,-1.12607 -0.612422,-2.19287 -1.224844,-3.25967 l -1.9558,-3.35844 c -0.513645,-0.889 -0.553156,-1.50142 -0.316089,-1.79776 H 73.31274 l -0.01976,0.0395 c 0.889,0.5334 1.145822,2.03483 1.0668,3.12138 l -0.513645,7.66516 c -0.09878,1.38289 -0.553155,2.17311 -1.185333,2.86455 z"
         style="font-style:normal;font-variant:normal;font-weight:normal;font-stretch:normal;font-size:19.75555611px;line-height:15.97554207px;font-family:Colus;-inkscape-font-specification:'Colus, Normal';font-variant-ligatures:normal;font-variant-caps:normal;font-variant-numeric:normal;font-feature-settings:normal;text-align:justify;writing-mode:lr-tb;text-anchor:start;fill:#051235;fill-opacity:1;stroke:none;stroke-width:0.52431709;stroke-miterlimit:4.0999999;stroke-dasharray:none;stroke-opacity:1"
         id="path837" />
      <path
         d="m 103.64321,370.94833 -2.90407,-8.13929 c -0.41486,-1.16557 -0.0198,-1.97555 0.35561,-2.3114 v -0.0395 h -5.235227 v 0.0395 c 0.375355,0.31609 0.750711,1.14583 0.3556,2.3114 l -2.825045,8.13929 c -0.5334,1.52118 -1.382889,2.72627 -1.916289,3.2004 v 0.0395 h 4.148667 v -0.0395 c -0.276578,-0.25682 -0.474133,-1.0668 0.03951,-2.42993 l 0.1778,-0.47413 h 5.096933 l 0.1778,0.47413 c 0.49389,1.36313 0.33585,2.17311 0,2.42993 v 0.0395 h 4.46476 v -0.0395 c -0.55316,-0.45437 -1.40265,-1.67922 -1.93605,-3.2004 z m -5.314243,-7.86271 h 0.07902 c 0.197556,1.52118 0.691445,2.8448 1.145823,4.12891 l 0.730958,2.09409 H 96.4917 l 0.730956,-2.09409 c 0.454378,-1.28411 0.928511,-2.60773 1.106311,-4.12891 z"
         style="font-style:normal;font-variant:normal;font-weight:normal;font-stretch:normal;font-size:19.75555611px;line-height:15.97554207px;font-family:Colus;-inkscape-font-specification:'Colus, Normal';font-variant-ligatures:normal;font-variant-caps:normal;font-variant-numeric:normal;font-feature-settings:normal;text-align:justify;writing-mode:lr-tb;text-anchor:start;fill:#051235;fill-opacity:1;stroke:none;stroke-width:0.52431709;stroke-miterlimit:4.0999999;stroke-dasharray:none;stroke-opacity:1"
         id="path839" />
      <path
         d="m 116.30697,360.30009 c -0.90876,0.11853 -1.73849,0.15804 -2.70651,0.15804 h -4.82036 c -0.96802,0 -1.79775,-0.0395 -2.70651,-0.15804 l -0.33584,3.61527 0.0395,0.0197 c 0.45438,-0.79022 1.38289,-1.46191 2.56822,-1.46191 h 1.50142 v 8.59367 c 0,1.67922 -0.63217,2.74602 -1.20509,3.08186 v 0.0395 h 5.11669 v -0.0395 c -0.65193,-0.33584 -1.20509,-1.38289 -1.20509,-3.08186 v -8.59367 h 1.48167 c 1.18533,0 2.11385,0.67169 2.56822,1.46191 l 0.0395,-0.0197 z"
         style="font-style:normal;font-variant:normal;font-weight:normal;font-stretch:normal;font-size:19.75555611px;line-height:15.97554207px;font-family:Colus;-inkscape-font-specification:'Colus, Normal';font-variant-ligatures:normal;font-variant-caps:normal;font-variant-numeric:normal;font-feature-settings:normal;text-align:justify;writing-mode:lr-tb;text-anchor:start;fill:#051235;fill-opacity:1;stroke:none;stroke-width:0.52431709;stroke-miterlimit:4.0999999;stroke-dasharray:none;stroke-opacity:1"
         id="path841" />
      <path
         d="m 119.09449,374.18824 h 4.85987 v -0.0395 c -0.51364,-0.33584 -1.0668,-1.28411 -1.0668,-2.92382 v -7.80344 c 0,-1.61996 0.57291,-2.58798 1.0668,-2.92383 v -0.0395 h -4.85987 v 0.0395 c 0.51365,0.33585 1.0668,1.28412 1.0668,2.92383 v 7.80344 c 0,1.61996 -0.57291,2.58798 -1.0668,2.92382 z"
         style="font-style:normal;font-variant:normal;font-weight:normal;font-stretch:normal;font-size:19.75555611px;line-height:15.97554207px;font-family:Colus;-inkscape-font-specification:'Colus, Normal';font-variant-ligatures:normal;font-variant-caps:normal;font-variant-numeric:normal;font-feature-settings:normal;text-align:justify;writing-mode:lr-tb;text-anchor:start;fill:#051235;fill-opacity:1;stroke:none;stroke-width:0.52431709;stroke-miterlimit:4.0999999;stroke-dasharray:none;stroke-opacity:1"
         id="path843" />
      <path
         d="m 136.80704,371.06687 -2.90407,-4.18818 2.42993,-3.99062 c 0.84949,-1.38289 1.65947,-2.15336 2.27189,-2.39043 v -0.0395 h -4.34622 v 0.0395 c 0.31609,0.59267 0.0593,1.12607 -0.43462,1.97556 l -1.40265,2.41018 -1.50142,-2.50896 c -0.45438,-0.77046 -0.65193,-1.28411 -0.5334,-1.87678 v -0.0395 h -4.60304 v 0.0395 c 0.79022,0.45438 1.2446,0.92852 1.778,1.71874 l 3.12137,4.66231 -3.06211,4.72158 c -0.80997,1.2446 -1.75824,2.23237 -2.44969,2.54846 v 0.0395 h 4.66232 v -0.0395 c -0.31609,-0.21731 -0.45438,-0.80997 0.11853,-1.73849 l 2.17311,-3.53624 2.01507,3.12138 c 0.80997,1.2446 1.2446,2.07433 1.2446,2.62749 l 4.12891,-0.73096 v -0.0395 c -0.69145,-0.45438 -1.75825,-1.40264 -2.70651,-2.78553 z"
         style="font-style:normal;font-variant:normal;font-weight:normal;font-stretch:normal;font-size:19.75555611px;line-height:15.97554207px;font-family:Colus;-inkscape-font-specification:'Colus, Normal';font-variant-ligatures:normal;font-variant-caps:normal;font-variant-numeric:normal;font-feature-settings:normal;text-align:justify;writing-mode:lr-tb;text-anchor:start;fill:#051235;fill-opacity:1;stroke:none;stroke-width:0.52431709;stroke-miterlimit:4.0999999;stroke-dasharray:none;stroke-opacity:1"
         id="path845" />
    </g>
    <path
       d="m 17.127504,316.6786 c -0.463285,0 -0.841375,0.37809 -0.841375,0.84138 v 12.34016 c 0,0.46329 0.37809,0.84138 0.841375,0.84138 h 12.059708 c 0.112713,0 0.211667,-0.0614 0.254,-0.16669 0.04392,-0.10504 0.01879,-0.22648 -0.06112,-0.30665 l -2.103438,-2.11217 c -0.08652,-0.0865 -0.220398,-0.10186 -0.324379,-0.0526 -0.0032,0.001 -0.0053,-10e-4 -0.0087,0 -0.180711,0.0802 -0.370417,0.12277 -0.569648,0.12277 -0.773377,0 -1.402292,-0.62892 -1.402292,-1.40229 0,-0.77338 0.628915,-1.4023 1.402292,-1.4023 0.773377,0 1.402291,0.62892 1.402291,1.4023 0,0.19843 -0.04286,0.39105 -0.122766,0.56964 -0.01429,0.0307 -0.01535,0.0635 -0.01746,0.0966 -0.0087,0.0942 0.03069,0.17727 0.10504,0.23654 l 2.085975,2.09471 c 0.05371,0.0537 0.128323,0.0789 0.201612,0.0789 0.03625,0 0.07012,-0.003 0.105304,-0.0175 0.103982,-0.0429 0.175155,-0.15029 0.175155,-0.263 v -12.0598 c -3.2e-5,-0.46329 -0.376799,-0.84138 -0.841407,-0.84138 h -4.767792 c -0.07461,0 -0.14896,0.0349 -0.201612,0.0876 l -2.944813,2.94481 c -0.08334,0.0714 -0.111654,0.18204 -0.07885,0.28919 0.0032,0.0111 0.0045,0.0164 0.0087,0.0265 0,10e-4 0,0.008 0,0.009 0.08334,0.18177 0.122768,0.37571 0.122768,0.57838 0,0.77338 -0.628916,1.40229 -1.402293,1.40229 -0.773376,0 -1.402292,-0.62891 -1.402292,-1.40229 0,-0.77338 0.628916,-1.40229 1.402292,-1.40229 0.199231,0 0.389996,0.0415 0.569649,0.12276 0.0021,0.001 0.0066,-10e-4 0.0087,0 0.103187,0.045 0.231245,0.0318 0.315647,-0.0526 l 2.112171,-2.1209 c 0.0799,-0.0799 0.10504,-0.20161 0.06138,-0.30691 -0.04392,-0.10504 -0.141552,-0.17516 -0.254265,-0.17516 z m 9.246394,2.53286 c 0.773377,0 1.402291,0.62891 1.402291,1.40229 0,0.77338 -0.628914,1.40229 -1.402291,1.40229 -0.198438,0 -0.395551,-0.0394 -0.578379,-0.12276 -0.106363,-0.0482 -0.232304,-0.0294 -0.315647,0.0529 l -3.94388,3.94362 c -0.08202,0.082 -0.100807,0.20928 -0.05265,0.31564 0.08334,0.18283 0.122766,0.38021 0.122766,0.57838 0,0.77338 -0.628914,1.4023 -1.402291,1.4023 -0.773378,0 -1.402292,-0.62892 -1.402292,-1.4023 0,-0.77337 0.628914,-1.40229 1.402292,-1.40229 0.199231,0 0.395552,0.0397 0.578379,0.12277 0.106362,0.0481 0.224631,0.0296 0.306916,-0.0526 l 3.952611,-3.95288 c 0.08334,-0.082 0.100542,-0.20029 0.05265,-0.30665 -0.08334,-0.18283 -0.122767,-0.37888 -0.122767,-0.57838 0,-0.77338 0.628916,-1.40229 1.402292,-1.40229 z m -6.170083,0.84137 c -0.310092,0 -0.560917,0.25083 -0.560917,0.56092 0,0.31009 0.250825,0.56092 0.560917,0.56092 0.310091,0 0.560916,-0.25083 0.560916,-0.56092 0,-0.31009 -0.250825,-0.56092 -0.560916,-0.56092 z m 6.170083,0 c -0.310092,0 -0.560917,0.25083 -0.560917,0.56092 0,0.31009 0.250825,0.56092 0.560917,0.56092 0.310091,0 0.560916,-0.25083 0.560916,-0.56092 0,-0.31009 -0.250825,-0.56092 -0.560916,-0.56092 z m -6.170083,6.17009 c -0.310092,0 -0.560917,0.25082 -0.560917,0.56091 0,0.3101 0.250825,0.56092 0.560917,0.56092 0.310091,0 0.560916,-0.25082 0.560916,-0.56092 0,-0.31009 -0.250825,-0.56091 -0.560916,-0.56091 z m 6.170083,0 c -0.310092,0 -0.560917,0.25082 -0.560917,0.56091 0,0.3101 0.250825,0.56092 0.560917,0.56092 0.310091,0 0.560916,-0.25082 0.560916,-0.56092 0,-0.31009 -0.250825,-0.56091 -0.560916,-0.56091 z"
       id="shape.primary"
       inkscape:connector-curvature="0"
       style="opacity:1;fill:#ee4c2c;fill-opacity:1;fill-rule:nonzero;stroke:none;stroke-width:0.465;stroke-miterlimit:4;stroke-dasharray:none;stroke-opacity:1"
       inkscape:export-xdpi="96"
       inkscape:export-ydpi="96" />
    <rect
       style="fill:#ffffff;fill-opacity:1;stroke:none;stroke-width:0.26458332"
       id="rect852"
       width="0.03340869"
       height="0.13363476"
       x="5.4901743"
       y="337.15976"
       ry="0.016704345" />
  </g>
</svg>
